<svg xmlns="http://www.w3.org/2000/svg" viewBox="0 0 7.939 3.682"><g id="Layer_2" data-name="Layer 2"><path d="M4.55,10.73a.237.237,0,0,1,.036-.121.252.252,0,0,1,.095-.085.278.278,0,0,1,.136-.03.288.288,0,0,1,.118.028.2.2,0,0,1,.079.067l0-.274.152,0-.009.523a.035.035,0,0,0,.007.026.045.045,0,0,0,.027.011l0,.1a.584.584,0,0,1-.064,0,.126.126,0,0,1-.067-.016.06.06,0,0,1-.029-.043v-.03a.225.225,0,0,1-.09.066.292.292,0,0,1-.117.021.314.314,0,0,1-.112-.02.3.3,0,0,1-.088-.053.253.253,0,0,1-.056-.079A.22.22,0,0,1,4.55,10.73Zm.462.071,0-.11a.128.128,0,0,0-.035-.046.24.24,0,0,0-.055-.034.163.163,0,0,0-.061-.013.155.155,0,0,0-.113.041.124.124,0,0,0-.032.043.163.163,0,0,0-.012.053.126.126,0,0,0,.012.055.135.135,0,0,0,.033.045.144.144,0,0,0,.051.03.2.2,0,0,0,.065.011.165.165,0,0,0,.044,0,.21.21,0,0,0,.042-.015.178.178,0,0,0,.036-.025A.083.083,0,0,0,5.012,10.8Z" transform="translate(-3.88 -7.999)" style="fill:#ed1c2d"/><path d="M5.583,10.992a.418.418,0,0,1-.128-.021.286.286,0,0,1-.1-.055.224.224,0,0,1-.061-.077.206.206,0,0,1-.02-.092.216.216,0,0,1,.04-.12.258.258,0,0,1,.109-.087.362.362,0,0,1,.167-.031.356.356,0,0,1,.163.037.257.257,0,0,1,.1.089.212.212,0,0,1,.035.119v.021l0,.018-.455-.008a.1.1,0,0,0,.024.063.13.13,0,0,0,.056.041.19.19,0,0,0,.072.016.223.223,0,0,0,.086-.016.1.1,0,0,0,.055-.047l.128.032a.2.2,0,0,1-.06.063.352.352,0,0,1-.094.042A.51.51,0,0,1,5.583,10.992Zm-.149-.282.308.006a.121.121,0,0,0-.024-.063.132.132,0,0,0-.054-.041.213.213,0,0,0-.149,0,.131.131,0,0,0-.055.039A.127.127,0,0,0,5.434,10.71Z" transform="translate(-3.88 -7.999)" style="fill:#ed1c2d"/><path d="M6.337,11.006a.287.287,0,0,1-.121-.027.211.211,0,0,1-.081-.068l0,.274-.15,0,.012-.659.132,0,0,.081a.269.269,0,0,1,.087-.064.3.3,0,0,1,.119-.022.358.358,0,0,1,.11.021.294.294,0,0,1,.086.055.238.238,0,0,1,.057.078.221.221,0,0,1,.019.093.239.239,0,0,1-.129.208A.268.268,0,0,1,6.337,11.006Zm-.049-.1a.181.181,0,0,0,.063-.01.135.135,0,0,0,.049-.03.129.129,0,0,0,.033-.046.131.131,0,0,0,.012-.051.145.145,0,0,0-.01-.055.122.122,0,0,0-.035-.044.144.144,0,0,0-.051-.03.176.176,0,0,0-.066-.012.127.127,0,0,0-.042,0,.223.223,0,0,0-.043.016.141.141,0,0,0-.035.023.113.113,0,0,0-.024.03l0,.111a.174.174,0,0,0,.037.046.163.163,0,0,0,.053.035A.213.213,0,0,0,6.288,10.9Z" transform="translate(-3.88 -7.999)" style="fill:#ed1c2d"/><path d="M7.056,10.643a.338.338,0,0,0-.123.019.147.147,0,0,0-.081.058l0,.286L6.7,11l.008-.467.138,0v.1a.22.22,0,0,1,.081-.074.21.21,0,0,1,.1-.029h.031Z" transform="translate(-3.88 -7.999)" style="fill:#ed1c2d"/><path d="M7.406,11.025A.4.4,0,0,1,7.278,11a.289.289,0,0,1-.1-.054.237.237,0,0,1-.061-.078.209.209,0,0,1,.02-.212.258.258,0,0,1,.109-.087.385.385,0,0,1,.166-.031.371.371,0,0,1,.164.037.261.261,0,0,1,.1.089.208.208,0,0,1,.035.12v.022l0,.016-.455-.008a.1.1,0,0,0,.025.063.144.144,0,0,0,.055.042.18.18,0,0,0,.073.015.209.209,0,0,0,.086-.016.1.1,0,0,0,.055-.047l.128.032a.2.2,0,0,1-.061.063.352.352,0,0,1-.094.042A.454.454,0,0,1,7.406,11.025Zm-.149-.282.309.006a.123.123,0,0,0-.078-.1.187.187,0,0,0-.075-.016.175.175,0,0,0-.074.013.123.123,0,0,0-.055.039A.13.13,0,0,0,7.257,10.743Z" transform="translate(-3.88 -7.999)" style="fill:#ed1c2d"/><path d="M8.082,11.037a.428.428,0,0,1-.13-.02.311.311,0,0,1-.1-.056.24.24,0,0,1-.061-.079.209.209,0,0,1-.02-.092.221.221,0,0,1,.04-.12.262.262,0,0,1,.108-.086.39.39,0,0,1,.167-.03.4.4,0,0,1,.163.036.239.239,0,0,1,.1.09l-.147.034a.111.111,0,0,0-.05-.041.167.167,0,0,0-.147,0,.132.132,0,0,0-.057.047.131.131,0,0,0-.022.072.127.127,0,0,0,.019.073A.15.15,0,0,0,8,10.916a.167.167,0,0,0,.078.019.149.149,0,0,0,.052-.006.14.14,0,0,0,.043-.02.1.1,0,0,0,.029-.027l.146.038a.193.193,0,0,1-.06.061.289.289,0,0,1-.092.043A.4.4,0,0,1,8.082,11.037Z" transform="translate(-3.88 -7.999)" style="fill:#ed1c2d"/><path d="M8.4,10.9a.117.117,0,0,1,.033-.078.2.2,0,0,1,.091-.05.382.382,0,0,1,.133-.018.637.637,0,0,1,.074.007.289.289,0,0,1,.067.015v-.026a.076.076,0,0,0-.032-.068.165.165,0,0,0-.1-.026.283.283,0,0,0-.093.013.528.528,0,0,0-.094.036l-.046-.079a.5.5,0,0,1,.121-.044.488.488,0,0,1,.128-.013.333.333,0,0,1,.2.053.165.165,0,0,1,.068.145l0,.147a.043.043,0,0,0,.008.028.071.071,0,0,0,.027.009v.1l-.037.005H8.92a.114.114,0,0,1-.067-.018.058.058,0,0,1-.027-.04l0-.024a.255.255,0,0,1-.1.059.3.3,0,0,1-.118.02.256.256,0,0,1-.1-.022.172.172,0,0,1-.072-.053A.124.124,0,0,1,8.4,10.9Zm.366.03a.067.067,0,0,0,.021-.02.038.038,0,0,0,.009-.018v-.047a.259.259,0,0,0-.058-.015.319.319,0,0,0-.059-.006.2.2,0,0,0-.1.018.062.062,0,0,0-.039.052.056.056,0,0,0,.012.033.081.081,0,0,0,.035.027.135.135,0,0,0,.057.011.216.216,0,0,0,.066-.01A.138.138,0,0,0,8.771,10.926Z" transform="translate(-3.88 -7.999)" style="fill:#ed1c2d"/><path d="M9.444,11.03l-.048.014a.439.439,0,0,1-.057.012.333.333,0,0,1-.063,0,.239.239,0,0,1-.077-.014.114.114,0,0,1-.055-.038.1.1,0,0,1-.019-.067l.005-.268-.077,0,0-.092.077,0,0-.153.151,0,0,.153.124,0,0,.092-.124,0,0,.227a.041.041,0,0,0,.016.035.074.074,0,0,0,.041.013.242.242,0,0,0,.045-.006l.037-.012Z" transform="translate(-3.88 -7.999)" style="fill:#ed1c2d"/><path d="M9.8,11.068a.372.372,0,0,1-.129-.02.306.306,0,0,1-.1-.055.23.23,0,0,1-.06-.077.207.207,0,0,1-.021-.092A.215.215,0,0,1,9.53,10.7a.274.274,0,0,1,.109-.087.389.389,0,0,1,.167-.031.384.384,0,0,1,.163.038.247.247,0,0,1,.1.089.2.2,0,0,1,.034.119v.022l0,.017-.455-.008a.1.1,0,0,0,.025.063.135.135,0,0,0,.055.041.181.181,0,0,0,.073.016.206.206,0,0,0,.086-.016.1.1,0,0,0,.055-.047l.128.032a.2.2,0,0,1-.06.062.361.361,0,0,1-.095.043A.452.452,0,0,1,9.8,11.068Zm-.15-.281.308,0a.123.123,0,0,0-.023-.062.139.139,0,0,0-.054-.041.206.206,0,0,0-.076-.016.173.173,0,0,0-.073.014.122.122,0,0,0-.082.1Z" transform="translate(-3.88 -7.999)" style="fill:#ed1c2d"/><path d="M10.164,10.833a.236.236,0,0,1,.132-.206.29.29,0,0,1,.253,0,.222.222,0,0,1,.08.066l.005-.273.152,0-.01.522a.038.038,0,0,0,.008.027.036.036,0,0,0,.027.01v.1a.342.342,0,0,1-.065.005.123.123,0,0,1-.067-.017.053.053,0,0,1-.029-.043l0-.03a.207.207,0,0,1-.088.067.337.337,0,0,1-.118.021.359.359,0,0,1-.111-.02.322.322,0,0,1-.088-.053.249.249,0,0,1-.056-.079A.228.228,0,0,1,10.164,10.833Zm.462.07,0-.109a.132.132,0,0,0-.035-.047.2.2,0,0,0-.055-.033.142.142,0,0,0-.059-.014.171.171,0,0,0-.065.011.222.222,0,0,0-.049.03.185.185,0,0,0-.032.043.135.135,0,0,0,0,.109.167.167,0,0,0,.034.045.15.15,0,0,0,.051.03.191.191,0,0,0,.064.011.161.161,0,0,0,.044,0,.19.19,0,0,0,.042-.015l.036-.024A.079.079,0,0,0,10.626,10.9Z" transform="translate(-3.88 -7.999)" style="fill:#ee3362"/><path d="M6.142,8.806a.273.273,0,0,0-.11.019.138.138,0,0,0-.071.058l0,.287-.133,0L5.832,8.7l.123,0,0,.1a.208.208,0,0,1,.072-.075.2.2,0,0,1,.093-.03h.015l.011,0Z" transform="translate(-3.88 -7.999)" style="fill:#5ec0ee"/><path d="M6.454,9.188a.317.317,0,0,1-.114-.022.243.243,0,0,1-.086-.054.212.212,0,0,1-.071-.169.233.233,0,0,1,.035-.121.253.253,0,0,1,.1-.087.308.308,0,0,1,.149-.03.293.293,0,0,1,.145.035.244.244,0,0,1,.093.09.225.225,0,0,1,.031.119v.022l0,.017-.405-.007a.125.125,0,0,0,.021.064.141.141,0,0,0,.05.04.144.144,0,0,0,.064.016.158.158,0,0,0,.077-.017.1.1,0,0,0,.049-.046l.114.031a.191.191,0,0,1-.055.063.255.255,0,0,1-.084.042A.349.349,0,0,1,6.454,9.188ZM6.321,8.9,6.6,8.91a.124.124,0,0,0-.021-.061.131.131,0,0,0-.048-.042.143.143,0,0,0-.066-.015.133.133,0,0,0-.066.013.121.121,0,0,0-.049.04A.129.129,0,0,0,6.321,8.9Z" transform="translate(-3.88 -7.999)" style="fill:#5ec0ee"/><path d="M6.776,9.047a.125.125,0,0,1,.03-.079.184.184,0,0,1,.08-.051A.333.333,0,0,1,7,8.9a.508.508,0,0,1,.067.007.231.231,0,0,1,.059.015V8.9A.085.085,0,0,0,7.1,8.827.134.134,0,0,0,7.017,8.8a.261.261,0,0,0-.085.012.569.569,0,0,0-.082.037l-.041-.079a.367.367,0,0,1,.107-.044.4.4,0,0,1,.115-.013.275.275,0,0,1,.174.052.173.173,0,0,1,.06.144l0,.149a.035.035,0,0,0,.007.026.038.038,0,0,0,.024.01v.1l-.034,0H7.234a.1.1,0,0,1-.06-.016.063.063,0,0,1-.024-.04l0-.025a.219.219,0,0,1-.086.06.26.26,0,0,1-.1.019.22.22,0,0,1-.094-.02A.154.154,0,0,1,6.8,9.121.123.123,0,0,1,6.776,9.047Zm.327.028a.145.145,0,0,0,.017-.019.04.04,0,0,0,.008-.02V8.99a.285.285,0,0,0-.052-.015l-.053-.006a.169.169,0,0,0-.086.019A.058.058,0,0,0,6.9,9.04a.051.051,0,0,0,.01.033.075.075,0,0,0,.031.027A.124.124,0,0,0,7,9.11a.2.2,0,0,0,.06-.009A.13.13,0,0,0,7.1,9.075Z" transform="translate(-3.88 -7.999)" style="fill:#5ec0ee"/><path d="M7.628,9.209a.332.332,0,0,1-.115-.021.24.24,0,0,1-.085-.055.228.228,0,0,1-.054-.079.222.222,0,0,1-.018-.092.228.228,0,0,1,.036-.119.232.232,0,0,1,.1-.087.316.316,0,0,1,.148-.03.293.293,0,0,1,.145.036.215.215,0,0,1,.09.089l-.132.033A.116.116,0,0,0,7.7,8.843a.139.139,0,0,0-.182.049.152.152,0,0,0-.02.073.15.15,0,0,0,.017.072.141.141,0,0,0,.049.051.148.148,0,0,0,.069.018.216.216,0,0,0,.046,0,.147.147,0,0,0,.039-.021.094.094,0,0,0,.026-.027l.13.038a.21.21,0,0,1-.054.062.245.245,0,0,1-.082.042A.314.314,0,0,1,7.628,9.209Z" transform="translate(-3.88 -7.999)" style="fill:#5ec0ee"/><path d="M8.264,9.188,8.223,9.2a.4.4,0,0,1-.052.012.339.339,0,0,1-.055,0,.17.17,0,0,1-.069-.013A.1.1,0,0,1,8,9.167.105.105,0,0,1,7.981,9.1l0-.27H7.918l0-.092h.068l0-.153.135,0,0,.153.109,0,0,.091-.109,0,0,.229A.042.042,0,0,0,8.13,9.1a.062.062,0,0,0,.037.011.19.19,0,0,0,.04-.005l.033-.012Z" transform="translate(-3.88 -7.999)" style="fill:#5ec0ee"/><path d="M8.333,9.213l.009-.472.133,0-.009.472Zm.01-.538,0-.119.133,0,0,.119Z" transform="translate(-3.88 -7.999)" style="fill:#5ec0ee"/><path d="M8.73,9.221,8.545,8.75l.139,0,.127.361.139-.356.128,0-.2.464Z" transform="translate(-3.88 -7.999)" style="fill:#5ec0ee"/><path d="M9.364,9.24a.34.34,0,0,1-.114-.02.286.286,0,0,1-.086-.054.254.254,0,0,1-.055-.077A.258.258,0,0,1,9.093,9a.237.237,0,0,1,.035-.122.256.256,0,0,1,.1-.087.318.318,0,0,1,.149-.03.308.308,0,0,1,.145.035.249.249,0,0,1,.092.09A.218.218,0,0,1,9.643,9v.021l0,.018-.406-.008a.122.122,0,0,0,.021.064.147.147,0,0,0,.051.041.166.166,0,0,0,.063.015.2.2,0,0,0,.077-.016.109.109,0,0,0,.05-.047l.113.031a.179.179,0,0,1-.054.063.255.255,0,0,1-.084.042A.331.331,0,0,1,9.364,9.24Zm-.133-.282.275,0A.125.125,0,0,0,9.484,8.9a.137.137,0,0,0-.047-.042.161.161,0,0,0-.067-.015.138.138,0,0,0-.065.013.126.126,0,0,0-.074.1Z" transform="translate(-3.88 -7.999)" style="fill:#5ec0ee"/></g><g id="Layer_3" data-name="Layer 3"><rect x="4.014" y="10.014" width="7.607" height="1.478" rx="0.25" transform="matrix(1, 0.018, -0.018, 1, -3.683, -8.14)" style="fill:none;stroke:#ed1c24;stroke-miterlimit:10;stroke-width:0.25px"/><rect x="4.079" y="8.189" width="7.607" height="1.478" rx="0.25" transform="translate(-3.716 -8.142) rotate(1.047)" style="fill:none;stroke:#00aeef;stroke-miterlimit:10;stroke-width:0.25px"/></g></svg>